<svg width="430" height="160" viewBox="0 0 430 160" fill="none" xmlns="http://www.w3.org/2000/svg">
<circle cx="70.75" cy="70.75" r="58.75" transform="matrix(-1 0 0 1 153.25 9.25)" stroke="black" stroke-width="24"/>
<path d="M46.75 28.25V132.25" stroke="black" stroke-width="24"/>
<path d="M233.694 130.5V105.3H243.126C245.262 105.3 247.098 105.648 248.634 106.344C250.17 107.016 251.346 108 252.162 109.296C253.002 110.568 253.422 112.116 253.422 113.94C253.422 115.716 253.002 117.252 252.162 118.548C251.346 119.82 250.17 120.804 248.634 121.5C247.098 122.196 245.262 122.544 243.126 122.544H235.17L236.358 121.284V130.5H233.694ZM236.358 121.5L235.17 120.204H243.054C245.574 120.204 247.482 119.664 248.778 118.584C250.098 117.48 250.758 115.932 250.758 113.94C250.758 111.924 250.098 110.364 248.778 109.26C247.482 108.156 245.574 107.604 243.054 107.604H235.17L236.358 106.344V121.5ZM258.185 130.5V111.6H260.633V116.748L260.381 115.848C260.909 114.408 261.797 113.316 263.045 112.572C264.293 111.804 265.841 111.42 267.689 111.42V113.904C267.593 113.904 267.497 113.904 267.401 113.904C267.305 113.88 267.209 113.868 267.113 113.868C265.121 113.868 263.561 114.48 262.433 115.704C261.305 116.904 260.741 118.62 260.741 120.852V130.5H258.185ZM279.881 130.68C278.057 130.68 276.413 130.272 274.949 129.456C273.509 128.616 272.369 127.476 271.529 126.036C270.689 124.572 270.269 122.904 270.269 121.032C270.269 119.136 270.689 117.468 271.529 116.028C272.369 114.588 273.509 113.46 274.949 112.644C276.389 111.828 278.033 111.42 279.881 111.42C281.753 111.42 283.409 111.828 284.849 112.644C286.313 113.46 287.453 114.588 288.269 116.028C289.109 117.468 289.529 119.136 289.529 121.032C289.529 122.904 289.109 124.572 288.269 126.036C287.453 127.476 286.313 128.616 284.849 129.456C283.385 130.272 281.729 130.68 279.881 130.68ZM279.881 128.412C281.249 128.412 282.461 128.112 283.517 127.512C284.573 126.888 285.401 126.024 286.001 124.92C286.625 123.792 286.937 122.496 286.937 121.032C286.937 119.544 286.625 118.248 286.001 117.144C285.401 116.04 284.573 115.188 283.517 114.588C282.461 113.964 281.261 113.652 279.917 113.652C278.573 113.652 277.373 113.964 276.317 114.588C275.261 115.188 274.421 116.04 273.797 117.144C273.173 118.248 272.861 119.544 272.861 121.032C272.861 122.496 273.173 123.792 273.797 124.92C274.421 126.024 275.261 126.888 276.317 127.512C277.373 128.112 278.561 128.412 279.881 128.412ZM291.94 137.664C291.172 137.664 290.44 137.556 289.744 137.34C289.024 137.148 288.424 136.848 287.944 136.44L288.844 134.496C289.612 135.144 290.596 135.468 291.796 135.468C292.804 135.468 293.572 135.168 294.1 134.568C294.652 133.968 294.928 133.08 294.928 131.904V111.6H297.484V131.904C297.484 133.656 297.004 135.048 296.044 136.08C295.108 137.136 293.74 137.664 291.94 137.664ZM296.224 107.424C295.696 107.424 295.252 107.244 294.892 106.884C294.532 106.524 294.352 106.092 294.352 105.588C294.352 105.084 294.532 104.664 294.892 104.328C295.252 103.968 295.696 103.788 296.224 103.788C296.752 103.788 297.196 103.956 297.556 104.292C297.916 104.628 298.096 105.048 298.096 105.552C298.096 106.08 297.916 106.524 297.556 106.884C297.22 107.244 296.776 107.424 296.224 107.424ZM312.655 130.68C310.687 130.68 308.959 130.272 307.471 129.456C305.983 128.616 304.819 127.476 303.979 126.036C303.139 124.572 302.719 122.904 302.719 121.032C302.719 119.16 303.115 117.504 303.907 116.064C304.723 114.624 305.827 113.496 307.219 112.68C308.635 111.84 310.219 111.42 311.971 111.42C313.747 111.42 315.319 111.828 316.687 112.644C318.079 113.436 319.171 114.564 319.963 116.028C320.755 117.468 321.151 119.136 321.151 121.032C321.151 121.152 321.139 121.284 321.115 121.428C321.115 121.548 321.115 121.68 321.115 121.824H304.663V119.916H319.747L318.739 120.672C318.739 119.304 318.439 118.092 317.839 117.036C317.263 115.956 316.471 115.116 315.463 114.516C314.455 113.916 313.291 113.616 311.971 113.616C310.675 113.616 309.511 113.916 308.479 114.516C307.447 115.116 306.643 115.956 306.067 117.036C305.491 118.116 305.203 119.352 305.203 120.744V121.14C305.203 122.58 305.515 123.852 306.139 124.956C306.787 126.036 307.675 126.888 308.803 127.512C309.955 128.112 311.263 128.412 312.727 128.412C313.879 128.412 314.947 128.208 315.931 127.8C316.939 127.392 317.803 126.768 318.523 125.928L319.963 127.584C319.123 128.592 318.067 129.36 316.795 129.888C315.547 130.416 314.167 130.68 312.655 130.68ZM334.201 130.68C332.329 130.68 330.649 130.272 329.161 129.456C327.697 128.616 326.545 127.476 325.705 126.036C324.865 124.572 324.445 122.904 324.445 121.032C324.445 119.136 324.865 117.468 325.705 116.028C326.545 114.588 327.697 113.46 329.161 112.644C330.649 111.828 332.329 111.42 334.201 111.42C335.809 111.42 337.261 111.732 338.557 112.356C339.853 112.98 340.873 113.916 341.617 115.164L339.709 116.46C339.061 115.5 338.257 114.792 337.297 114.336C336.337 113.88 335.293 113.652 334.165 113.652C332.821 113.652 331.609 113.964 330.529 114.588C329.449 115.188 328.597 116.04 327.973 117.144C327.349 118.248 327.037 119.544 327.037 121.032C327.037 122.52 327.349 123.816 327.973 124.92C328.597 126.024 329.449 126.888 330.529 127.512C331.609 128.112 332.821 128.412 334.165 128.412C335.293 128.412 336.337 128.184 337.297 127.728C338.257 127.272 339.061 126.576 339.709 125.64L341.617 126.936C340.873 128.16 339.853 129.096 338.557 129.744C337.261 130.368 335.809 130.68 334.201 130.68ZM352.825 130.68C351.049 130.68 349.681 130.2 348.721 129.24C347.761 128.28 347.281 126.924 347.281 125.172V107.424H349.837V125.028C349.837 126.132 350.113 126.984 350.665 127.584C351.241 128.184 352.057 128.484 353.113 128.484C354.241 128.484 355.177 128.16 355.921 127.512L356.821 129.348C356.317 129.804 355.705 130.14 354.985 130.356C354.289 130.572 353.569 130.68 352.825 130.68ZM343.897 113.724V111.6H355.597V113.724H343.897Z" fill="black"/>
<path d="M198.616 88.328C194.798 88.328 191.256 87.707 187.99 86.465C184.77 85.223 181.964 83.475 179.572 81.221C177.226 78.967 175.386 76.322 174.052 73.286C172.764 70.25 172.12 66.938 172.12 63.35C172.12 59.762 172.764 56.45 174.052 53.414C175.386 50.378 177.249 47.733 179.641 45.479C182.033 43.225 184.839 41.477 188.059 40.235C191.279 38.993 194.775 38.372 198.547 38.372C202.365 38.372 205.861 38.993 209.035 40.235C212.255 41.477 215.038 43.225 217.384 45.479C219.776 47.733 221.639 50.378 222.973 53.414C224.307 56.404 224.974 59.716 224.974 63.35C224.974 66.938 224.307 70.273 222.973 73.355C221.639 76.391 219.776 79.036 217.384 81.29C215.038 83.498 212.255 85.223 209.035 86.465C205.861 87.707 202.388 88.328 198.616 88.328ZM198.547 78.806C200.709 78.806 202.687 78.438 204.481 77.702C206.321 76.966 207.931 75.908 209.311 74.528C210.691 73.148 211.749 71.515 212.485 69.629C213.267 67.743 213.658 65.65 213.658 63.35C213.658 61.05 213.267 58.957 212.485 57.071C211.749 55.185 210.691 53.552 209.311 52.172C207.977 50.792 206.39 49.734 204.55 48.998C202.71 48.262 200.709 47.894 198.547 47.894C196.385 47.894 194.384 48.262 192.544 48.998C190.75 49.734 189.163 50.792 187.783 52.172C186.403 53.552 185.322 55.185 184.54 57.071C183.804 58.957 183.436 61.05 183.436 63.35C183.436 65.604 183.804 67.697 184.54 69.629C185.322 71.515 186.38 73.148 187.714 74.528C189.094 75.908 190.704 76.966 192.544 77.702C194.384 78.438 196.385 78.806 198.547 78.806ZM243.417 87.5L227.616 39.2H239.208L252.939 81.98H247.143L261.495 39.2H271.845L285.645 81.98H280.056L294.132 39.2H304.827L289.026 87.5H277.02L264.807 49.964H267.981L255.423 87.5H243.417ZM311.067 87.5V39.2H320.313L348.81 73.976H344.325V39.2H355.365V87.5H346.188L317.622 52.724H322.107V87.5H311.067ZM366.792 87.5V39.2H388.734C393.978 39.2 398.601 40.212 402.603 42.236C406.605 44.214 409.733 46.997 411.987 50.585C414.241 54.173 415.368 58.428 415.368 63.35C415.368 68.226 414.241 72.481 411.987 76.115C409.733 79.703 406.605 82.509 402.603 84.533C398.601 86.511 393.978 87.5 388.734 87.5H366.792ZM377.97 78.323H388.182C391.402 78.323 394.185 77.725 396.531 76.529C398.923 75.287 400.763 73.539 402.051 71.285C403.385 69.031 404.052 66.386 404.052 63.35C404.052 60.268 403.385 57.623 402.051 55.415C400.763 53.161 398.923 51.436 396.531 50.24C394.185 48.998 391.402 48.377 388.182 48.377H377.97V78.323Z" fill="black"/>
</svg>
